<?xml version="1.0" encoding="UTF-8" standalone="no"?>
<svg width="100%" height="100%" viewBox="0 0 202 202" version="1.1" xmlns="http://www.w3.org/2000/svg" xmlns:xlink="http://www.w3.org/1999/xlink" xmlns:sketch="http://www.bohemiancoding.com/sketch/ns">
    <title>WHATWG Serial API logo</title>
    <defs></defs>
    <g id="Page-1" stroke="none" stroke-width="1" fill="none" fill-rule="evenodd" sketch:type="MSPage">
        <g id="Oval-+-Rectangle-1-+-Group" sketch:type="MSLayerGroup" transform="translate(1.000000, 1.000000)">
            <path d="M200,100 C200,44.7715226 155.228477,0 100,0 C44.7715226,0 0,44.7715226 0,100 C0,155.228477 44.7715226,200 100,200 C155.228477,200 200,155.228477 200,100 Z M20,100 C20,55.8172176 55.8172176,20 100,20 C144.182782,20 180,55.8172176 180,100 C180,144.182782 144.182782,180 100,180 C55.8172176,180 20,144.182782 20,100 Z M20,100" id="Oval" fill="#3C790A" sketch:type="MSShapeGroup"></path>
            <g id="Rectangle-1-+-Group" transform="translate(29.878049, 70.121951)" fill="#30680A" sketch:type="MSShapeGroup">
                <path d="M12.0974498,2.6214235 C3.29837747,3.23799964 -1.84713483,10.596543 0.615947951,19.096259 L7.92372146,44.31425 C10.3817354,52.7964743 19.5476455,59.6726756 28.3492618,59.6726756 L111.072219,59.6726756 C119.89492,59.6726756 129.120044,52.813966 131.666559,44.3882342 L139.33293,19.0222748 C141.88417,10.5809109 136.820976,3.27387374 127.984162,2.71892345 C127.984162,2.71892345 88.0527845,0 69.9960602,0 C45.6272125,1.49317217e-06 12.0974498,2.6214235 12.0974498,2.6214235 Z M94.2636566,8.762085 C97.798657,8.93246259 101.4998,9.12580352 105.318311,9.33786022 C110.651077,9.6340093 115.945111,9.95142013 120.957805,10.2688134 C122.711849,10.3798758 124.305054,10.4829775 125.707175,10.5754606 C126.546743,10.6308381 127.13487,10.6702889 127.441333,10.691156 C131.170696,10.9254703 132.747002,13.193158 131.683948,16.7105175 L124.017576,42.0764769 C122.488493,47.1358014 116.366297,51.6819839 111.072219,51.6819839 L28.3492618,51.6819839 C23.0969823,51.6819839 17.0647544,47.1494471 15.5986577,42.0901753 L8.2908842,16.8721843 C7.24614019,13.266935 8.92971171,10.8536817 12.6560108,10.5925692 C12.9722446,10.5681061 13.465132,10.5304827 14.1780413,10.4774967 C15.3717092,10.388779 16.7437095,10.2898127 18.2731218,10.1831592 C22.6470738,9.87814199 27.400623,9.57302611 32.3659115,9.28829791 C39.7614137,8.86421216 46.9678768,8.52350678 53.7325426,8.29652601 C59.6861009,8.09676105 65.1447205,7.99069205 69.9960607,7.99069176 C75.6621487,7.99069176 84.0010179,8.26745319 94.2636566,8.762085 Z M94.2636566,8.762085" id="Rectangle-1"></path>
                <g id="Group" transform="translate(33.536585, 18.292683)">
                    <path d="M9.45121951,4.72560976 C9.45121951,2.11572748 7.33549204,0 4.72560976,0 C2.11572748,0 0,2.11572748 0,4.72560976 C0,7.33549204 2.11572748,9.45121951 4.72560976,9.45121951 C7.33549204,9.45121951 9.45121951,7.33549204 9.45121951,4.72560976 Z M3.7804878,4.72560976 C3.7804878,4.20363324 4.20363324,3.7804878 4.72560976,3.7804878 C5.24758627,3.7804878 5.67073171,4.20363324 5.67073171,4.72560976 C5.67073171,5.24758627 5.24758627,5.67073171 4.72560976,5.67073171 C4.20363324,5.67073171 3.7804878,5.24758627 3.7804878,4.72560976 Z M3.7804878,4.72560976" id="Oval-2"></path>
                    <path d="M25.304878,4.72560976 C25.304878,2.11572748 23.1891506,0 20.5792683,0 C17.969386,0 15.8536585,2.11572748 15.8536585,4.72560976 C15.8536585,7.33549204 17.969386,9.45121951 20.5792683,9.45121951 C23.1891506,9.45121951 25.304878,7.33549204 25.304878,4.72560976 Z M19.6341463,4.72560976 C19.6341463,4.20363324 20.0572918,3.7804878 20.5792683,3.7804878 C21.1012448,3.7804878 21.5243902,4.20363324 21.5243902,4.72560976 C21.5243902,5.24758627 21.1012448,5.67073171 20.5792683,5.67073171 C20.0572918,5.67073171 19.6341463,5.24758627 19.6341463,4.72560976 Z M19.6341463,4.72560976" id="Oval-2"></path>
                    <path d="M41.4634146,4.72560976 C41.4634146,2.11572748 39.3476872,0 36.7378049,0 C34.1279226,0 32.0121951,2.11572748 32.0121951,4.72560976 C32.0121951,7.33549204 34.1279226,9.45121951 36.7378049,9.45121951 C39.3476872,9.45121951 41.4634146,7.33549204 41.4634146,4.72560976 Z M35.7926829,4.72560976 C35.7926829,4.20363324 36.2158284,3.7804878 36.7378049,3.7804878 C37.2597814,3.7804878 37.6829268,4.20363324 37.6829268,4.72560976 C37.6829268,5.24758627 37.2597814,5.67073171 36.7378049,5.67073171 C36.2158284,5.67073171 35.7926829,5.24758627 35.7926829,4.72560976 Z M35.7926829,4.72560976" id="Oval-2"></path>
                    <path d="M57.6219512,4.72560976 C57.6219512,2.11572748 55.5062237,0 52.8963415,0 C50.2864592,0 48.1707317,2.11572748 48.1707317,4.72560976 C48.1707317,7.33549204 50.2864592,9.45121951 52.8963415,9.45121951 C55.5062237,9.45121951 57.6219512,7.33549204 57.6219512,4.72560976 Z M51.9512195,4.72560976 C51.9512195,4.20363324 52.3743649,3.7804878 52.8963415,3.7804878 C53.418318,3.7804878 53.8414634,4.20363324 53.8414634,4.72560976 C53.8414634,5.24758627 53.418318,5.67073171 52.8963415,5.67073171 C52.3743649,5.67073171 51.9512195,5.24758627 51.9512195,4.72560976 Z M51.9512195,4.72560976" id="Oval-2"></path>
                    <path d="M73.1707317,4.72560976 C73.1707317,2.11572748 71.0550042,0 68.445122,0 C65.8352397,0 63.7195122,2.11572748 63.7195122,4.72560976 C63.7195122,7.33549204 65.8352397,9.45121951 68.445122,9.45121951 C71.0550042,9.45121951 73.1707317,7.33549204 73.1707317,4.72560976 Z M67.5,4.72560976 C67.5,4.20363324 67.9231454,3.7804878 68.445122,3.7804878 C68.9670985,3.7804878 69.3902439,4.20363324 69.3902439,4.72560976 C69.3902439,5.24758627 68.9670985,5.67073171 68.445122,5.67073171 C67.9231454,5.67073171 67.5,5.24758627 67.5,4.72560976 Z M67.5,4.72560976" id="Oval-2"></path>
                    <path d="M17.3780488,18.445122 C17.3780488,15.8352397 15.2623213,13.7195122 12.652439,13.7195122 C10.0425567,13.7195122 7.92682927,15.8352397 7.92682927,18.445122 C7.92682927,21.0550042 10.0425567,23.1707317 12.652439,23.1707317 C15.2623213,23.1707317 17.3780488,21.0550042 17.3780488,18.445122 Z M11.7073171,18.445122 C11.7073171,17.9231454 12.1304625,17.5 12.652439,17.5 C13.1744155,17.5 13.597561,17.9231454 13.597561,18.445122 C13.597561,18.9670985 13.1744155,19.3902439 12.652439,19.3902439 C12.1304625,19.3902439 11.7073171,18.9670985 11.7073171,18.445122 Z M11.7073171,18.445122" id="Oval-2"></path>
                    <path d="M33.2317073,18.445122 C33.2317073,15.8352397 31.1159798,13.7195122 28.5060976,13.7195122 C25.8962153,13.7195122 23.7804878,15.8352397 23.7804878,18.445122 C23.7804878,21.0550042 25.8962153,23.1707317 28.5060976,23.1707317 C31.1159798,23.1707317 33.2317073,21.0550042 33.2317073,18.445122 Z M27.5609756,18.445122 C27.5609756,17.9231454 27.984121,17.5 28.5060976,17.5 C29.0280741,17.5 29.4512195,17.9231454 29.4512195,18.445122 C29.4512195,18.9670985 29.0280741,19.3902439 28.5060976,19.3902439 C27.984121,19.3902439 27.5609756,18.9670985 27.5609756,18.445122 Z M27.5609756,18.445122" id="Oval-2"></path>
                    <path d="M49.3902439,18.445122 C49.3902439,15.8352397 47.2745164,13.7195122 44.6646341,13.7195122 C42.0547519,13.7195122 39.9390244,15.8352397 39.9390244,18.445122 C39.9390244,21.0550042 42.0547519,23.1707317 44.6646341,23.1707317 C47.2745164,23.1707317 49.3902439,21.0550042 49.3902439,18.445122 Z M43.7195122,18.445122 C43.7195122,17.9231454 44.1426576,17.5 44.6646341,17.5 C45.1866107,17.5 45.6097561,17.9231454 45.6097561,18.445122 C45.6097561,18.9670985 45.1866107,19.3902439 44.6646341,19.3902439 C44.1426576,19.3902439 43.7195122,18.9670985 43.7195122,18.445122 Z M43.7195122,18.445122" id="Oval-2"></path>
                    <path d="M65.5487805,18.445122 C65.5487805,15.8352397 63.433053,13.7195122 60.8231707,13.7195122 C58.2132885,13.7195122 56.097561,15.8352397 56.097561,18.445122 C56.097561,21.0550042 58.2132885,23.1707317 60.8231707,23.1707317 C63.433053,23.1707317 65.5487805,21.0550042 65.5487805,18.445122 Z M59.8780488,18.445122 C59.8780488,17.9231454 60.3011942,17.5 60.8231707,17.5 C61.3451472,17.5 61.7682927,17.9231454 61.7682927,18.445122 C61.7682927,18.9670985 61.3451472,19.3902439 60.8231707,19.3902439 C60.3011942,19.3902439 59.8780488,18.9670985 59.8780488,18.445122 Z M59.8780488,18.445122" id="Oval-2"></path>
                </g>
            </g>
        </g>
    </g>
</svg>